<svg width="192" height="192" viewBox="0 0 192 192" fill="none" xmlns="http://www.w3.org/2000/svg">
<path fill-rule="evenodd" clip-rule="evenodd" d="M123.724 5.05099C140.38 12.4315 152 29.1088 152 48.5C152 67.5463 140.79 83.9744 124.608 91.5464C130.485 94.1507 136.99 95.5974 143.832 95.5974C170.065 95.5974 191.332 74.3309 191.332 48.0974C191.332 21.8639 170.065 0.597412 143.832 0.597412C136.645 0.597412 129.83 2.19367 123.724 5.05099Z" fill="#002B36"/>
<path fill-rule="evenodd" clip-rule="evenodd" d="M186.949 123.724C179.569 140.38 162.891 152 143.5 152C124.454 152 108.026 140.79 100.454 124.608C97.8493 130.485 96.4026 136.99 96.4026 143.832C96.4026 170.065 117.669 191.332 143.903 191.332C170.136 191.332 191.403 170.065 191.403 143.832C191.403 136.645 189.806 129.83 186.949 123.724Z" fill="#002B36"/>
<path fill-rule="evenodd" clip-rule="evenodd" d="M68.276 186.949C51.6196 179.569 40 162.891 40 143.5C40 124.454 51.21 108.026 67.3921 100.454C61.5148 97.8493 55.0103 96.4026 48.168 96.4026C21.9345 96.4026 0.66803 117.669 0.66803 143.903C0.66803 170.136 21.9345 191.403 48.168 191.403C55.3552 191.403 62.1696 189.806 68.276 186.949Z" fill="#002B36"/>
<path fill-rule="evenodd" clip-rule="evenodd" d="M5.05099 68.276C12.4315 51.6196 29.1088 40 48.5 40C67.5463 40 83.9744 51.21 91.5464 67.3921C94.1507 61.5148 95.5974 55.0103 95.5974 48.168C95.5974 21.9345 74.3309 0.66803 48.0974 0.66803C21.8639 0.66803 0.597412 21.9345 0.597412 48.168C0.597412 55.3552 2.19367 62.1696 5.05099 68.276Z" fill="#002B36"/>
<circle cx="95.5" cy="95.5" r="47.5" transform="rotate(-180 95.5 95.5)" fill="#B58900"/>
<path fill-rule="evenodd" clip-rule="evenodd" d="M68.276 5.05099C51.6196 12.4315 40 29.1088 40 48.5C40 67.5463 51.21 83.9744 67.3921 91.5464C61.5148 94.1507 55.0103 95.5974 48.168 95.5974C21.9345 95.5974 0.66803 74.3309 0.66803 48.0974C0.66803 21.8639 21.9345 0.597412 48.168 0.597412C55.3552 0.597412 62.1696 2.19367 68.276 5.05099Z" fill="#002B36"/>
<path fill-rule="evenodd" clip-rule="evenodd" d="M5.05099 123.724C12.4315 140.38 29.1088 152 48.5 152C67.5463 152 83.9744 140.79 91.5464 124.608C94.1507 130.485 95.5974 136.99 95.5974 143.832C95.5974 170.065 74.3309 191.332 48.0974 191.332C21.8639 191.332 0.597412 170.065 0.597412 143.832C0.597412 136.645 2.19367 129.83 5.05099 123.724Z" fill="#002B36"/>
<path fill-rule="evenodd" clip-rule="evenodd" d="M123.724 186.949C140.38 179.569 152 162.891 152 143.5C152 124.454 140.79 108.026 124.608 100.454C130.485 97.8493 136.99 96.4026 143.832 96.4026C170.065 96.4026 191.332 117.669 191.332 143.903C191.332 170.136 170.065 191.403 143.832 191.403C136.645 191.403 129.83 189.806 123.724 186.949Z" fill="#002B36"/>
<path fill-rule="evenodd" clip-rule="evenodd" d="M186.949 68.276C179.569 51.6196 162.891 40 143.5 40C124.454 40 108.026 51.21 100.454 67.3921C97.8493 61.5148 96.4026 55.0103 96.4026 48.168C96.4026 21.9345 117.669 0.66803 143.903 0.66803C170.136 0.66803 191.403 21.9345 191.403 48.168C191.403 55.3552 189.806 62.1696 186.949 68.276Z" fill="#002B36"/>
</svg>
